# xmcd
#
# Track frame offsets:
# 150
# 15022
# 28725
# 48206
# 63275
# 82050
# 93977
# 112352
# 128893
# 151526
# 171060
# 190988
# 206616
#
# Disc length: 3025 seconds
#
#
# Revision: 4
# Processed by: cddbd v1.5.2PL0 Copyright (c) Steve Scherf et al.
# Submitted via: FreeRIP 2.951 
#
DISCID=a00bcf0d
DTITLE=Hana Hegerova - Rymovani o zivote
DYEAR=1900
DGENRE=
TTITLE0=Tak uz bal
TTITLE1=Ceresne
TTITLE2=Barova lavice
TTITLE3=Mapa lasky
TTITLE4=Lasko ma
TTITLE5=Petr a Lucie
TTITLE6=Denim blue
TTITLE7=Boze muj, ja chci zpet
TTITLE8=Potmesily host
TTITLE9=Mylord
TTITLE10=Ja se vratim
TTITLE11=Krasne sis to vymyslel
TTITLE12=Zila som spravne
EXTD=
EXTT0=
EXTT1=
EXTT2=
EXTT3=
EXTT4=
EXTT5=
EXTT6=
EXTT7=
EXTT8=
EXTT9=
EXTT10=
EXTT11=
EXTT12=
PLAYORDER=
